<svg width="48" height="26" viewBox="0 0 48 26" fill="none" xmlns="http://www.w3.org/2000/svg">
<path d="M13.1765 0.5H34.8235C41.8309 0.5 47.5 6.10278 47.5 13C47.5 19.8972 41.8309 25.5 34.8235 25.5H13.1765C6.16907 25.5 0.5 19.8972 0.5 13C0.5 6.10278 6.16907 0.5 13.1765 0.5Z" fill="white" stroke="white"/>
<g filter="url(#filter0_dd_25_24)">
<path d="M34.8236 0.464233H13.1766C6.15932 0.464233 0.470703 6.07666 0.470703 12.9999C0.470703 19.9232 6.15932 25.5357 13.1766 25.5357H34.8236C41.8409 25.5357 47.5295 19.9232 47.5295 12.9999C47.5295 6.07666 41.8409 0.464233 34.8236 0.464233Z" fill="#363636" fill-opacity="0.72"/>
</g>
<defs>
<filter id="filter0_dd_25_24" x="-57.5293" y="-51.5358" width="163.059" height="151.071" filterUnits="userSpaceOnUse" color-interpolation-filters="sRGB">
<feFlood flood-opacity="0" result="BackgroundImageFix"/>
<feColorMatrix in="SourceAlpha" type="matrix" values="0 0 0 0 0 0 0 0 0 0 0 0 0 0 0 0 0 0 127 0" result="hardAlpha"/>
<feOffset dy="16"/>
<feGaussianBlur stdDeviation="29"/>
<feColorMatrix type="matrix" values="0 0 0 0 0.0341667 0 0 0 0 0.0408 0 0 0 0 0.2 0 0 0 0.03 0"/>
<feBlend mode="normal" in2="BackgroundImageFix" result="effect1_dropShadow_25_24"/>
<feColorMatrix in="SourceAlpha" type="matrix" values="0 0 0 0 0 0 0 0 0 0 0 0 0 0 0 0 0 0 127 0" result="hardAlpha"/>
<feOffset dy="-2"/>
<feGaussianBlur stdDeviation="25"/>
<feColorMatrix type="matrix" values="0 0 0 0 0.0352941 0 0 0 0 0.0392157 0 0 0 0 0.2 0 0 0 0.02 0"/>
<feBlend mode="normal" in2="effect1_dropShadow_25_24" result="effect2_dropShadow_25_24"/>
<feBlend mode="normal" in="SourceGraphic" in2="effect2_dropShadow_25_24" result="shape"/>
</filter>
</defs>
</svg>
